# xmcd
#
# Track frame offsets:
#	150
#	16150
#	29862
#	41148
#	56001
#	69205
#	83071
#	100745
#	114920
#	127590
#	142549
#	156107
#	171306
#	185385
#	199926
#
# Disc length: 2882 seconds
#
# Revision: 1
# Processed by: cddbd v1.5.2PL0 Copyright (c) Steve Scherf et al.
# Submitted via: audiograbber 1.83.01
#
DISCID=bb0b400f
DTITLE=Truck Stop - Unser Hamburg
DYEAR=2016
DGENRE=Country
TTITLE0=Cornflakes, Hamburg-Amsterdam
TTITLE1=Die Elbbruecke ist aus Eisen
TTITLE2=Groﬂstadtrevier (Original)
TTITLE3=Endlich heim nach Hamburg
TTITLE4=Kuddl von ne Kueste
TTITLE5=Der wilde, wilde Westen (Neuaufnahme)
TTITLE6=Ebbe und Flut
TTITLE7=Waterkant
TTITLE8=300 Jahre (wenn man uns addiert)
TTITLE9=AKH!!
TTITLE10=Wir sind die Elbe-Cowboys
TTITLE11=Hamburger Wind
TTITLE12=HH fuer Hamburg
TTITLE13=Berlin Hamburg Eurokai
TTITLE14=A 7 Blues
EXTD=
EXTT0=
EXTT1=
EXTT2=
EXTT3=
EXTT4=
EXTT5=
EXTT6=
EXTT7=
EXTT8=
EXTT9=
EXTT10=
EXTT11=
EXTT12=
EXTT13=
EXTT14=
PLAYORDER=
